<svg width="134" height="64" viewBox="0 0 134 64" fill="none" xmlns="http://www.w3.org/2000/svg">
<path d="M76.352 18.8798C74.816 19.1998 73.472 20.0958 72.256 21.8238C71.616 22.5918 71.232 23.8078 71.168 25.2158C71.168 26.1118 71.168 26.3678 71.36 27.1998C71.616 28.2878 72.064 29.1198 72.512 29.6958C72.704 29.8238 72.96 30.1438 73.088 30.3358C73.216 30.5278 73.536 30.7838 73.792 30.9758C74.048 31.1038 74.432 31.3598 74.688 31.5518C74.944 31.6798 75.456 31.9358 75.904 32.0638C76.544 32.3198 76.864 32.3838 77.76 32.4478C79.36 32.5118 80.32 32.2558 81.92 31.2318C82.24 31.0398 82.432 30.8478 82.432 30.8478C82.432 30.5918 82.112 30.0158 81.6 29.2478L81.088 28.4158L80.768 28.7998C80.32 29.2478 79.744 29.5038 78.784 29.6318C78.144 29.7598 77.952 29.7598 77.248 29.6318C75.8826 29.3758 74.88 28.5865 74.24 27.2638C73.6 25.9838 73.664 24.7038 74.432 23.4238C74.944 22.5918 75.328 22.2078 76.096 21.8238C76.992 21.3545 77.8453 21.1838 78.656 21.3118C79.36 21.4398 80.384 21.9518 80.768 22.2718C80.96 22.3998 81.088 22.5278 81.152 22.5278C81.28 22.3358 81.984 21.1838 82.24 20.7358L82.496 20.2878L82.112 19.9678C80.832 18.8798 78.464 18.3678 76.352 18.8798Z" fill="black"/>
<path d="M42.048 18.9439C41.664 19.0079 41.472 19.1359 40.832 19.5839C40 20.1599 39.744 20.5439 39.488 21.3759C39.104 22.3999 39.104 23.1039 39.424 24.1279C39.68 24.8959 40.064 25.4079 40.832 26.0479C41.6 26.6879 42.432 26.8159 44.544 26.8159C46.08 26.8159 46.272 26.8159 46.528 27.0079C47.424 27.5199 47.36 28.8639 46.464 29.3119C46.208 29.5039 45.824 29.5039 43.008 29.5039H39.936V30.8479V32.1919H43.008C44.736 32.1919 46.272 32.1279 46.592 32.0639C48.256 31.7439 49.728 30.1439 49.856 28.4159C49.92 27.2639 49.664 26.6239 48.832 25.5359C48.576 25.1519 48.384 24.9599 47.68 24.6399L46.784 24.1919L44.736 24.1279L42.688 24.0639L42.368 23.8079C41.984 23.5519 41.856 23.2959 41.856 22.9119C41.856 22.4639 42.048 22.0799 42.368 21.8239L42.624 21.5679H45.952L49.28 21.5039V20.1599L49.344 18.8799H45.824C43.968 18.8799 42.24 18.8799 42.048 18.9439Z" fill="black"/>
<path fill-rule="evenodd" clip-rule="evenodd" d="M52.5439 18.8159H55.6799C57.4719 18.8159 59.0079 18.8799 59.2639 18.9439C59.9039 19.0719 60.5439 19.4559 61.3119 20.0959C61.9519 20.6079 62.1439 20.7999 62.4639 21.3759C63.0399 22.4639 63.1679 23.1039 63.1679 24.1279C63.1679 25.3439 62.7839 26.6239 62.0159 27.5199C61.6319 28.0319 60.4799 28.8639 59.7119 29.1839C59.0079 29.4399 59.0079 29.4399 57.1519 29.5039H55.2319V32.1919H52.5439V18.8159ZM56.8319 21.5039H55.2319V26.8159L56.8959 26.7519C58.7519 26.6879 59.0719 26.6239 59.7119 26.0479C60.2239 25.5359 60.5439 24.8959 60.5439 24.3199C60.6719 23.2319 59.9039 22.0799 58.9439 21.6959C58.4959 21.5039 58.2399 21.5039 56.8319 21.5039Z" fill="black"/>
<path d="M65.728 25.5359V32.1919H67.072H68.48V25.5359V18.8799H67.072H65.728V25.5359Z" fill="black"/>
<path d="M84.864 23.2959L84.928 27.7759L85.184 28.5439C85.632 29.9519 86.528 30.9119 87.936 31.6159C88.576 31.9359 88.896 32.0639 89.472 32.1279C92.288 32.5119 95.04 30.4639 95.488 27.6479C95.552 27.3279 95.616 25.2799 95.616 22.9759V18.8799H94.272H92.928L92.864 23.2319V27.5839L92.608 27.9679C92.352 28.4799 91.712 29.0559 91.264 29.3119C91.072 29.4399 90.752 29.4399 90.24 29.4399C89.216 29.4399 88.704 29.1839 88.192 28.4799C87.488 27.6479 87.552 27.7759 87.552 23.0399V18.8799H86.208H84.864V23.2959Z" fill="black"/>
<path d="M98.8159 25.4719L98.8799 32.1279H103.488H108.16V30.7839L108.224 29.5039H104.832H101.504V24.1919V18.8159H100.16H98.8159V25.4719Z" fill="black"/>
<path d="M110.528 25.5359V32.1919H115.136H119.68V30.8479V29.5039H116.416H113.152V28.1599V26.8159H115.328H117.504V25.4719V24.1279H115.328H113.152V22.8479V21.5039H116.416H119.68V20.1599V18.8799H115.136H110.528V25.5359Z" fill="black"/>
<path d="M124.48 18.9439C123.904 19.0719 123.52 19.2639 122.88 19.9039C122.112 20.6719 121.984 20.7999 121.792 21.6319C121.6 22.4639 121.6 23.1039 121.792 23.9359C121.984 24.7039 122.368 25.3439 123.2 25.9839C123.968 26.6239 124.736 26.8159 126.912 26.8159C128.768 26.8159 129.024 26.8799 129.344 27.3919C129.536 27.7119 129.6 28.4799 129.344 28.8639C129.024 29.5039 128.96 29.5039 125.44 29.5039H122.24V30.8479V32.1919H125.696L129.088 32.1279L129.792 31.8079C131.904 30.7839 132.864 28.4799 131.904 26.4959C131.52 25.7279 130.944 25.0879 130.304 24.7679C129.344 24.1919 129.28 24.1919 127.104 24.1279L125.056 24.0639L124.672 23.7439C124.032 23.1039 124.096 22.2719 124.8 21.7599L125.12 21.5039H128.384H131.648V20.1599V18.8799H128.192C126.272 18.8799 124.608 18.8799 124.48 18.9439Z" fill="black"/>
<path d="M87.3601 38.0162C87.3601 38.2722 87.3601 38.2722 87.8081 38.2722H88.2561V39.4242L88.3201 40.6402H88.5761L88.8321 40.7042V39.4882V38.2722H89.2801C89.6641 38.2722 89.7281 38.2722 89.7281 38.0162V37.8242H88.5121H87.3601V38.0162Z" fill="black"/>
<path d="M91.2 39.2322V40.7042H92.0959C92.9279 40.7042 92.9279 40.7042 92.9279 40.4482C92.9279 40.2562 92.9279 40.2562 92.2879 40.2562H91.6479L91.712 39.8722V39.4882H92.2879C92.7359 39.4242 92.864 39.4242 92.864 39.2322C92.864 39.1042 92.8 39.1042 92.224 39.1042H91.6479V38.6562V38.2722H92.2879C92.9279 38.2722 92.9279 38.2722 92.9279 38.0802C92.9279 37.8242 92.9279 37.8242 92.0959 37.8242H91.2V39.2322Z" fill="black"/>
<path d="M95.0399 38.0162C94.4639 38.4642 94.2079 39.4242 94.6559 40.0642C94.9119 40.5122 95.5519 40.8322 95.9999 40.7042C96.6399 40.6402 97.3439 39.9362 96.8959 39.7442C96.7679 39.6802 96.7039 39.7442 96.5119 39.9362C95.9359 40.5762 94.8479 40.1282 94.8479 39.2962C94.8479 38.9122 95.1039 38.4642 95.2959 38.3362C95.6159 38.2082 96.1919 38.2722 96.3839 38.4642C96.5119 38.5282 96.5759 38.6562 96.5759 38.7202C96.6186 38.8056 96.7039 38.8269 96.8319 38.7842C97.1732 38.6989 97.1306 38.4642 96.7039 38.0802C96.4479 37.8882 96.3199 37.8242 95.8719 37.8242C95.4879 37.8242 95.2959 37.8882 95.0399 38.0162Z" fill="black"/>
<path d="M98.688 37.9522C98.624 38.0162 98.624 38.6562 98.624 39.3602L98.688 40.6402H98.944L99.2 40.7042V40.0642V39.4242H99.84H100.544V40.0642C100.544 40.6402 100.544 40.7042 100.736 40.7042H100.928V39.2322V37.8242H100.736C100.544 37.8242 100.544 37.8242 100.544 38.4002V38.9762H99.84H99.2V38.4002C99.2 37.8242 99.2 37.8242 98.944 37.8242C98.816 37.8242 98.688 37.8882 98.688 37.9522Z" fill="black"/>
<path d="M102.784 39.2322V40.7042H102.976H103.168V39.6162V38.5282L103.808 39.4242C104.512 40.5762 104.576 40.7042 104.896 40.7042H105.088V39.2322V37.8242H104.832H104.64V38.8482C104.64 39.6802 104.64 39.8082 104.512 39.6802C104.448 39.6162 104.192 39.1682 103.872 38.6562C103.36 37.8882 103.296 37.8242 103.04 37.8242H102.784V39.2322Z" fill="black"/>
<path fill-rule="evenodd" clip-rule="evenodd" d="M108.928 38.0162C109.376 38.3362 109.568 38.7842 109.504 39.3602C109.504 39.6802 109.44 40.0002 109.312 40.1282C108.672 40.9602 107.392 40.8962 106.88 40.0002C106.496 39.3602 106.752 38.4002 107.328 38.0162C107.776 37.7602 108.544 37.7602 108.928 38.0162ZM108.096 38.2722C107.52 38.2722 107.2 38.5922 107.2 39.2322C107.2 39.6162 107.264 39.7442 107.52 40.0002C108.032 40.5122 108.928 40.1922 109.056 39.4882C109.12 39.1042 108.992 38.5922 108.736 38.4002C108.608 38.3362 108.288 38.2722 108.096 38.2722Z" fill="black"/>
<path d="M111.168 39.2322V40.7042H112.064C112.96 40.7042 112.96 40.7042 112.96 40.4482C112.96 40.2562 112.96 40.2562 112.32 40.1922H111.68L111.616 38.9762V37.8242H111.424H111.168V39.2322Z" fill="black"/>
<path fill-rule="evenodd" clip-rule="evenodd" d="M115.648 37.8242C116.032 37.8242 116.224 37.8882 116.48 38.0802C117.312 38.6562 117.248 39.9362 116.416 40.4482C115.904 40.8322 115.52 40.8322 115.072 40.5762C114.496 40.3202 114.24 39.8722 114.24 39.2962C114.24 38.6562 114.56 38.0802 115.008 37.8882C115.072 37.8882 115.392 37.8242 115.648 37.8242ZM115.648 38.2722C115.136 38.2722 114.944 38.4002 114.816 38.7202C114.624 39.0402 114.624 39.4882 114.816 39.8082C114.944 40.1282 115.2 40.2562 115.648 40.2562C115.968 40.2562 116.096 40.1922 116.288 40.0002C116.48 39.7442 116.544 39.6802 116.544 39.2322C116.544 38.8482 116.48 38.7202 116.288 38.5282C116.096 38.3362 115.968 38.2722 115.648 38.2722Z" fill="black"/>
<path d="M119.296 37.8882C118.976 38.0162 118.592 38.5282 118.528 38.9122C118.272 39.8722 119.168 40.8962 120.064 40.7042C120.768 40.5762 121.088 40.2562 121.152 39.6162L121.216 39.2322H120.512C119.808 39.2322 119.744 39.2962 119.744 39.4242C119.744 39.5522 119.808 39.6162 120.192 39.6162C120.704 39.6162 120.768 39.7442 120.512 40.0642C120.128 40.4482 119.232 40.2562 119.04 39.7442C118.912 39.3602 118.976 38.7202 119.168 38.5282C119.616 38.1442 120.448 38.2082 120.576 38.5922C120.704 38.8482 120.832 38.8482 121.024 38.6562C121.216 38.5922 121.216 38.5282 120.832 38.2082C120.512 37.8242 120.448 37.8242 120 37.8242C119.68 37.8242 119.36 37.8882 119.296 37.8882Z" fill="black"/>
<path d="M122.816 39.2322V40.7042H123.008H123.264V39.2322V37.8242H123.008H122.816V39.2322Z" fill="black"/>
<path d="M125.056 39.2322V40.7042H125.952H126.848V40.4482C126.848 40.2562 126.848 40.2562 126.208 40.2562H125.568V39.8082V39.4242H126.144C126.592 39.4242 126.656 39.4242 126.656 39.2322C126.656 39.1042 126.592 39.1042 126.144 39.1042C125.888 39.1042 125.632 39.0402 125.568 39.0402C125.568 39.0402 125.568 38.8482 125.568 38.6562L125.632 38.2722H126.208C126.848 38.2722 126.848 38.2722 126.848 38.0802V37.8242H125.952H125.056V39.2322Z" fill="black"/>
<path d="M128.64 38.0162C128.384 38.3362 128.32 38.6562 128.448 38.9762C128.64 39.2322 128.896 39.4242 129.408 39.5522C129.856 39.6162 129.984 39.9362 129.664 40.1922C129.472 40.3842 129.088 40.3202 128.832 40.0002C128.768 39.8722 128.576 39.8082 128.512 39.8082C128.064 39.8082 128.384 40.4482 128.896 40.6402C129.664 40.8962 130.368 40.5762 130.368 39.8722C130.368 39.4242 130.112 39.2322 129.6 39.1042C129.408 39.0402 129.152 38.9122 129.088 38.9122C128.896 38.7842 128.896 38.4642 129.024 38.2722C129.28 38.1442 129.536 38.1442 129.792 38.4002C129.92 38.5282 130.048 38.5922 130.176 38.5922C130.432 38.5282 130.368 38.4642 130.112 38.0802C129.92 37.8242 129.856 37.8242 129.408 37.8242C128.96 37.8242 128.832 37.8882 128.64 38.0162Z" fill="black"/>
<path fill-rule="evenodd" clip-rule="evenodd" d="M25.0239 0.831843C24.9727 1.01104 24.9215 1.23119 24.8703 1.45135C24.7935 1.78159 24.7167 2.11184 24.6399 2.30384C24.5119 2.68784 24.3839 3.07184 24.3839 3.13584C24.3839 3.19984 24.2559 3.77584 24.0639 4.35184C23.9359 4.99184 23.7439 5.69584 23.6159 6.01584C23.5839 6.17582 23.5359 6.3678 23.4879 6.55977L23.4879 6.55981L23.4879 6.55983L23.4879 6.55995L23.4878 6.56005L23.4878 6.56012C23.4398 6.75203 23.3919 6.94392 23.3599 7.10384C23.2319 7.42384 23.1039 7.93584 23.0399 8.31984C22.9599 8.51984 22.8799 8.84484 22.7999 9.16984C22.7519 9.36484 22.7039 9.55984 22.6559 9.72784C22.6132 9.87719 22.5634 10.0408 22.5137 10.2043C22.4141 10.5314 22.3146 10.8585 22.2719 11.0718C22.2719 11.3659 22.1098 11.9301 21.9842 12.3673L21.9842 12.3673L21.9519 12.4798C21.8499 12.7519 21.7659 13.0602 21.6904 13.3373L21.6904 13.3374C21.6238 13.5817 21.5639 13.8019 21.5039 13.9518C21.4399 14.2718 21.3119 14.7838 21.1839 15.1038C21.1481 15.3185 21.0723 15.5732 21.0013 15.812L21.0012 15.812L21.0012 15.8121L21.0012 15.8122L21.0012 15.8122L21.0012 15.8122C20.9452 16.0005 20.8921 16.1788 20.8639 16.3198C20.8484 16.3817 20.8292 16.4697 20.8063 16.5748L20.8063 16.5748C20.7343 16.9048 20.6255 17.4035 20.4799 17.7918C20.2649 18.5982 20.0724 19.303 19.9168 19.873L19.9163 19.8745L19.9162 19.8749L19.9161 19.8754C19.7015 20.6612 19.557 21.1904 19.5199 21.3758C19.5199 21.5678 19.3919 22.0798 19.1999 22.5278C19.1146 22.8265 19.0292 23.2105 18.9629 23.5092C18.9297 23.6585 18.9012 23.7865 18.8799 23.8718C18.8679 23.9197 18.8537 23.981 18.8373 24.052L18.8372 24.0522C18.7657 24.3607 18.6519 24.8517 18.4959 25.2158C18.4499 25.3766 18.3958 25.5786 18.3393 25.7893L18.3392 25.7894L18.3391 25.7898C18.2382 26.166 18.1299 26.5698 18.0479 26.8158C17.9908 27.2158 17.8316 27.7687 17.7071 28.2015L17.6639 28.3518C17.5359 28.7358 17.4079 29.1838 17.4079 29.3118C17.3439 29.5038 17.2159 29.9517 17.088 30.3996L17.0879 30.3998C16.9599 30.7838 16.8959 31.1678 16.8959 31.2318C16.8959 31.3598 17.3439 30.5918 17.3439 30.3998C17.3439 30.3358 17.4719 30.0158 17.5999 29.6958C17.7226 29.4914 17.8452 29.2085 17.9512 28.9641L17.9513 28.9641L17.9513 28.964L17.9513 28.964L17.9513 28.9639C18.0112 28.8259 18.0657 28.7002 18.1119 28.6078C18.256 28.1756 18.4811 27.642 18.6961 27.1325C18.8631 26.7368 19.024 26.3556 19.1359 26.0478C19.3279 25.7278 19.5199 25.2158 19.5839 24.9598C19.6434 24.8408 19.6891 24.7219 19.7273 24.6221C19.7714 24.5073 19.8056 24.4181 19.8399 24.3838C19.8812 24.3425 19.9492 24.1945 20.0267 24.0258L20.0267 24.0258C20.0692 23.9333 20.1145 23.8345 20.1599 23.7438C20.2239 23.4238 20.4159 22.9118 20.5439 22.6558C20.7359 22.3358 20.8639 22.0158 20.8639 21.8878C20.9279 21.6958 21.0559 21.3758 21.1839 21.1198C21.2347 20.9929 21.2955 20.866 21.3544 20.743L21.3545 20.743C21.4441 20.556 21.5293 20.3783 21.5679 20.2238C21.6106 20.0958 21.7101 19.8541 21.8097 19.6123C21.8594 19.4914 21.9092 19.3705 21.9519 19.2638C22.004 19.1465 22.0588 19.0265 22.1168 18.8996L22.1175 18.8981L22.1175 18.898L22.1176 18.8978C22.3442 18.4018 22.6196 17.799 22.9759 16.8318C23.0173 16.666 23.1393 16.3929 23.2549 16.134C23.3178 15.9932 23.3788 15.8566 23.4239 15.7438L23.424 15.7437C23.5519 15.4237 23.6799 15.1038 23.6799 15.0398C23.6799 15.0078 23.7279 14.9118 23.7919 14.7838L23.7919 14.7838C23.8559 14.6558 23.9359 14.4958 23.9999 14.3358C24.1919 13.9518 24.3199 13.6318 24.3199 13.5678C24.3199 13.5038 24.4479 13.1838 24.6399 12.8638C24.6701 12.7883 24.7039 12.7021 24.7395 12.6111L24.7395 12.611C24.855 12.3164 24.9901 11.9714 25.0879 11.7758C25.1519 11.4558 25.2799 11.1998 25.3439 11.1358C25.3439 11.0719 25.5358 10.624 25.7278 10.1761L25.7278 10.1761L25.7278 10.176L25.7278 10.176L25.7278 10.176L25.7279 10.1758C25.8362 9.88697 25.9649 9.5981 26.068 9.3667L26.068 9.36668C26.1476 9.18795 26.212 9.04351 26.2399 8.95984C26.3679 8.83184 26.3679 8.70384 26.3679 8.63984C26.3679 8.57584 26.5599 8.12784 26.8159 7.61584C26.8892 7.42028 26.9626 7.23406 27.0252 7.075C27.1265 6.81763 27.1999 6.6314 27.1999 6.59184L27.4559 5.95184C27.6479 5.69584 27.7759 5.37584 27.7759 5.31184L28.0319 4.67184C28.1599 4.35184 28.3519 3.90384 28.4799 3.64784C28.5439 3.39184 28.7359 2.87984 28.9279 2.55984C29.0559 2.23984 29.1839 1.91984 29.1839 1.85584C29.1839 1.59984 26.7519 0.319843 25.8559 0.127843C25.7342 0.127843 25.6124 0.10212 25.5233 0.0832893C25.4719 0.0724175 25.4313 0.0638431 25.4079 0.0638431C25.2799 -0.0641569 25.2159 0.127843 25.0239 0.831843ZM18.688 3.26383L16.704 5.24783V18.3038C16.768 25.4718 16.704 31.3598 16.704 31.3598C16.6644 31.3598 16.6493 31.3109 16.6284 31.2434L16.6284 31.2433C16.6155 31.2016 16.6004 31.1527 16.576 31.1038C16.448 30.4638 16.064 27.7118 16.064 27.1358C16.0406 26.9953 16.0086 26.7433 15.968 26.4238L15.968 26.4237L15.968 26.4237C15.8977 25.8702 15.8017 25.1142 15.68 24.3838C15.5583 23.6535 15.4623 22.8974 15.392 22.344C15.3514 22.0244 15.3194 21.7724 15.296 21.6318C15.296 21.3118 15.168 20.3518 15.04 19.5198C14.912 18.6878 14.784 17.4718 14.72 16.8318C14.592 15.6798 14.528 15.2318 14.208 13.1838C14.144 12.6078 14.016 11.7758 13.952 11.4558C13.952 11.1358 13.888 10.3678 13.824 9.85583C13.7955 9.67044 13.7725 9.50571 13.7524 9.36118C13.6835 8.86731 13.6476 8.60947 13.5351 8.57C13.4121 8.52688 13.1978 8.74436 12.7493 9.19941C12.6502 9.30002 12.5396 9.41225 12.416 9.53583C11.9298 10.0221 11.5174 10.4714 11.3193 10.6872L11.3192 10.6873C11.2566 10.7555 11.2154 10.8005 11.2 10.8158C11.072 10.9438 11.136 11.3918 11.648 13.1198C11.6911 13.2752 11.7319 13.4212 11.7709 13.5606L11.771 13.5607C12.0209 14.455 12.1945 15.0759 12.416 16.1278C12.4853 16.3357 12.5733 16.6562 12.67 17.0079C12.7519 17.3059 12.8399 17.6263 12.928 17.9198C13.6533 20.5225 14.016 21.8878 14.016 22.0158C14.016 22.0554 14.0649 22.2416 14.1324 22.4989L14.1324 22.499C14.1742 22.658 14.2231 22.8443 14.272 23.0398C14.3811 23.2944 14.4695 23.6109 14.549 23.8955C14.6094 24.1118 14.6647 24.3097 14.72 24.4478C14.784 24.7678 14.912 25.3438 15.04 25.6638C15.104 25.9838 15.232 26.5598 15.296 26.8158C15.36 27.1358 15.552 27.9038 15.744 28.4798C15.8228 28.7624 15.8943 29.0173 15.9588 29.2475C16.5224 31.2588 16.5563 31.3795 16.384 31.5518L16.3713 31.5647C16.3491 31.5872 16.3323 31.6044 16.312 31.6116C16.2485 31.6341 16.1505 31.5596 15.7458 31.2519L15.7455 31.2517C15.6252 31.1602 15.4777 31.0481 15.296 30.9118C15.104 30.7198 14.784 30.4638 14.528 30.3358C14.3223 30.1758 14.0757 29.975 13.8292 29.7742C13.3854 29.4127 12.9417 29.0513 12.736 28.9278C12.672 28.8638 12.576 28.7998 12.48 28.7358C12.384 28.6718 12.288 28.6078 12.224 28.5438C11.968 28.3518 11.392 27.9038 10.368 27.0718C10.2277 26.9596 10.0751 26.8474 9.93714 26.7459L9.93711 26.7459C9.76045 26.6159 9.60786 26.5037 9.53598 26.4318C9.34398 26.3038 8.76798 25.8558 8.19198 25.4078C7.93651 25.2091 7.66844 25.0104 7.43805 24.8397C7.14898 24.6254 6.91921 24.4551 6.84798 24.3838C6.65598 24.2558 6.27198 23.9998 6.01598 23.7438C5.94183 23.6868 5.87479 23.6343 5.81424 23.5869C5.54447 23.3758 5.40338 23.2654 5.33487 23.2997C5.25974 23.3374 5.27189 23.5491 5.29736 23.993C5.30194 24.073 5.30696 24.1605 5.31198 24.2558C5.31198 25.3438 5.37598 25.4718 5.88798 25.7278C6.07998 25.7918 6.27198 25.8558 6.33598 25.9198C6.36797 25.9518 6.46393 26.0158 6.58388 26.0958L6.58396 26.0958L6.58398 26.0958C6.70398 26.1758 6.84798 26.2718 6.97598 26.3678C7.14546 26.4356 7.31493 26.5393 7.4654 26.6314C7.59903 26.7131 7.71767 26.7857 7.80798 26.8158C7.99998 26.9438 8.19198 27.0718 8.25598 27.0718C8.25598 27.0718 8.51198 27.1998 8.83198 27.3918L8.83205 27.3919C9.15203 27.5839 9.47198 27.7758 9.53598 27.8398C9.61864 27.8398 9.75467 27.9199 9.90961 28.0111C9.99461 28.0611 10.0853 28.1145 10.176 28.1598C10.368 28.2878 10.752 28.5438 10.944 28.6078C11.776 29.0558 12.416 29.4398 12.672 29.6318C12.8 29.6958 12.992 29.8238 13.056 29.8878C13.1386 29.8878 13.2747 29.9679 13.4296 30.0591L13.4296 30.0591C13.5146 30.1091 13.6053 30.1625 13.696 30.2078C14.016 30.3998 14.272 30.5278 14.272 30.5278C14.3062 30.5278 14.3955 30.5828 14.5103 30.6536C14.61 30.715 14.729 30.7883 14.848 30.8478C15.104 31.0398 15.488 31.2958 15.744 31.3598C15.936 31.4238 16.064 31.5518 16.064 31.6158C16.064 31.6585 16 31.6585 15.872 31.6158C15.776 31.5838 15.664 31.5358 15.552 31.4878C15.44 31.4398 15.328 31.3918 15.232 31.3598C15.128 31.3252 14.9678 31.253 14.792 31.1738L14.7919 31.1738L14.7919 31.1738C14.6429 31.1067 14.4827 31.0345 14.336 30.9758C14.0802 30.848 13.6968 30.7201 13.5046 30.656L13.5046 30.656L13.5045 30.656L13.5044 30.656L13.5043 30.6559L13.5042 30.6559L13.5042 30.6559L13.5041 30.6559L13.504 30.6559L13.504 30.6558L13.504 30.6558C13.312 30.5918 12.864 30.3998 12.544 30.2078C12.16 30.0798 11.84 29.9518 11.84 29.9518C11.776 29.9518 11.456 29.8238 9.27998 28.8638C9.02398 28.7678 8.79998 28.6718 8.63198 28.5998C8.46398 28.5278 8.35198 28.4798 8.31998 28.4798C8.25598 28.4798 7.93598 28.3518 7.55198 28.1598C7.39199 28.0958 7.23201 28.0158 7.10401 27.9518L7.10398 27.9518C6.97598 27.8878 6.87998 27.8398 6.84798 27.8398C6.78398 27.8398 6.52798 27.7758 6.27198 27.6478C6.01598 27.5198 5.75998 27.4558 5.69598 27.4558C5.63198 27.5198 6.20798 29.0558 6.33598 29.1198C6.46398 29.1838 7.61598 29.5038 8.57598 29.7598C8.73598 29.8238 8.97598 29.8878 9.21598 29.9518C9.45598 30.0158 9.69598 30.0798 9.85598 30.1438C9.99107 30.1709 10.1832 30.2207 10.389 30.2741L10.389 30.2741L10.389 30.2741C10.6707 30.3471 10.9781 30.4268 11.2 30.4638C11.3726 30.5214 11.6357 30.5918 11.9254 30.6694C12.2802 30.7644 12.6749 30.8701 12.992 30.9758C13.568 31.1038 14.4 31.2958 14.784 31.4238C14.92 31.4692 15.0641 31.5065 15.1991 31.5415C15.4452 31.6052 15.6613 31.6612 15.744 31.7438C16 31.8078 16 31.8078 15.872 31.9358C15.68 32.0638 12.608 32.5118 11.264 32.6398C10.724 32.6848 9.42487 32.888 8.67868 33.0047C8.36351 33.054 8.14699 33.0878 8.12798 33.0878C8.12798 33.1518 8.12798 33.2158 8.25598 33.2798C8.27109 33.31 8.2862 33.3438 8.30214 33.3795C8.35376 33.4949 8.4142 33.63 8.51198 33.7278C8.57598 34.0478 8.63998 34.0478 8.95998 33.9838C9.15198 33.9838 9.72798 33.8558 10.176 33.6638C10.4982 33.5718 10.8866 33.4797 11.1746 33.4115C11.287 33.3848 11.3841 33.3618 11.456 33.3438C11.5111 33.3301 11.581 33.3133 11.6606 33.2943C11.951 33.2247 12.3706 33.1243 12.672 33.0238C12.8213 32.9812 12.9849 32.9314 13.1484 32.8816L13.1485 32.8816L13.1486 32.8816C13.4757 32.782 13.8027 32.6825 14.016 32.6398C14.176 32.6078 14.384 32.5598 14.592 32.5118L14.592 32.5118C14.8 32.4638 15.008 32.4158 15.168 32.3838C15.488 32.2558 15.872 32.1918 15.936 32.1918C16.064 32.1918 15.04 32.7038 14.848 32.7038C14.8187 32.7038 14.7493 32.7306 14.6581 32.7658L14.658 32.7658C14.5498 32.8075 14.4109 32.8611 14.272 32.8958C14.144 32.9598 13.9681 33.0398 13.7921 33.1198L13.7921 33.1198L13.7919 33.1199L13.7918 33.1199C13.6158 33.1999 13.4399 33.2799 13.312 33.3438C13.2725 33.3596 13.2253 33.3783 13.1715 33.3996C12.7897 33.5508 12.081 33.8313 11.52 34.1118C10.88 34.3678 10.112 34.6878 9.85598 34.8158C9.59998 34.8798 9.34398 35.0078 9.34398 35.0078C9.34398 35.0718 9.47198 35.2638 9.66398 35.4558L9.91998 35.8398L10.56 35.5198C10.7301 35.4178 10.9002 35.2976 11.0415 35.1978C11.166 35.1099 11.268 35.0378 11.328 35.0078C11.456 34.9438 11.584 34.8798 11.648 34.8798C11.712 34.8798 12.032 34.6878 12.352 34.4318C12.736 34.2398 13.056 34.0478 13.056 34.0478C13.12 34.0478 13.248 33.9838 13.312 33.9198C13.376 33.8558 13.696 33.6638 13.952 33.5358C14.0531 33.4853 14.1843 33.4047 14.3256 33.3179C14.542 33.1849 14.7824 33.0373 14.976 32.9598C15.232 32.7678 15.488 32.6398 15.552 32.6398C15.552 32.6398 15.808 32.5118 15.936 32.3838C16.032 32.3198 16.128 32.2718 16.192 32.2398C16.2098 32.2309 16.2251 32.2233 16.2372 32.2169C16.2087 32.2725 16.2643 32.3282 16.32 32.3838C16.448 32.4478 16.448 32.5118 16.32 32.7678C16.256 32.8958 16.128 33.2158 16.064 33.4718C15.936 33.7278 15.744 34.1758 15.616 34.4958C15.488 34.7518 15.36 35.0718 15.36 35.0718C15.36 35.1998 15.168 35.7118 14.464 37.2478C14.336 37.6318 14.144 38.1438 14.016 38.3998C13.952 38.5918 13.76 39.1038 13.568 39.4238L13.568 39.4239C13.44 39.7439 13.312 40.0638 13.248 40.1918C13.248 40.2662 13.1831 40.4271 13.1037 40.6241C13.0464 40.7661 12.9816 40.927 12.928 41.0878C12.7948 41.3098 12.6924 41.5626 12.6208 41.7394L12.6208 41.7395C12.5892 41.8175 12.5636 41.8806 12.544 41.9198C12.544 41.998 12.4725 42.1476 12.3876 42.3251C12.3335 42.4384 12.2739 42.5631 12.224 42.6878C12.168 42.8277 12.112 42.9799 12.0614 43.1175L12.0613 43.1179L12.0612 43.1181L12.0612 43.1182L12.0611 43.1183L12.061 43.1186L12.061 43.1187C11.996 43.2954 11.9399 43.448 11.904 43.5198C11.904 43.5883 11.849 43.7118 11.7782 43.8707C11.7168 44.0087 11.6435 44.1733 11.584 44.3518C11.392 44.6718 11.264 44.9918 11.264 45.0558C11.264 45.1198 11.136 45.4398 10.944 45.8238C10.9013 45.9305 10.8515 46.0514 10.8018 46.1723C10.7022 46.4141 10.6026 46.6558 10.56 46.7838C10.496 46.9758 10.304 47.3598 10.176 47.6158C10.048 47.9358 9.91998 48.2558 9.85598 48.3838C9.85598 48.5278 9.74798 48.7798 9.63998 49.0318L9.6399 49.032C9.60393 49.116 9.56796 49.1999 9.53598 49.2798C9.34398 49.6638 9.15198 50.1118 9.08798 50.3038C9.02398 50.4958 8.89598 50.8798 8.76798 51.1358C8.57598 51.4558 8.51198 51.7118 8.51198 51.7758C8.51198 51.8398 8.38398 52.1598 8.19198 52.4798C8.16177 52.5554 8.12798 52.6416 8.09232 52.7326C7.9769 53.0273 7.84177 53.3723 7.74398 53.5678C7.62688 53.8606 7.483 54.2069 7.29395 54.6619C7.06972 55.2016 6.78195 55.8943 6.39998 56.8318C6.07998 57.5358 5.75998 58.3038 5.69598 58.6238C5.65545 58.7049 5.60851 58.8052 5.55921 58.9105C5.45281 59.1379 5.33545 59.3886 5.24798 59.5198C5.21992 59.604 5.17956 59.7005 5.14307 59.7877C5.09635 59.8994 5.05598 59.9959 5.05598 60.0318C5.05598 60.0958 4.92798 60.4798 4.73598 60.8638C4.22398 61.8878 4.22398 62.0798 4.47998 62.2718C4.65792 62.4498 5.11069 62.7376 5.73641 63.1354L5.73664 63.1356L5.73688 63.1357L5.737 63.1358L5.88798 63.2318C6.20798 63.3598 7.80798 63.9358 7.99998 63.9358C8.12798 63.9358 8.25598 63.6158 8.51198 62.4638C8.57598 62.1438 8.70398 61.6318 8.83198 61.3118C8.95998 60.9278 9.08798 60.4158 9.15198 60.1598C9.19465 59.9465 9.2942 59.5625 9.39376 59.1785C9.44354 58.9865 9.49331 58.7945 9.53598 58.6238C9.64218 58.2388 9.74288 57.8759 9.83635 57.539L9.83637 57.5389C10.1935 56.2515 10.4453 55.3442 10.496 55.0398C10.496 54.9246 10.5651 54.6942 10.648 54.4178C10.7033 54.2334 10.7648 54.0286 10.816 53.8238C10.8406 53.7376 10.8677 53.6442 10.8957 53.5473C11.0132 53.1412 11.1483 52.6742 11.2 52.4158C11.2265 52.3098 11.2749 52.1271 11.3317 51.9129L11.3317 51.9126L11.3318 51.9123L11.3319 51.9121C11.4122 51.6091 11.509 51.2436 11.584 50.9438C11.7527 50.4377 11.9708 49.6352 12.1515 48.9703L12.1515 48.9703L12.224 48.7038C12.3398 48.1249 12.6126 47.1271 12.8058 46.4209L12.864 46.2078C13.056 45.5038 13.248 44.7998 13.248 44.6078C13.312 44.4158 13.44 43.9679 13.5679 43.52L13.568 43.5198C13.7356 43.1286 13.8545 42.6398 13.9245 42.3517C13.9347 42.3099 13.9439 42.2723 13.952 42.2398C14.016 41.9198 14.144 41.3438 14.272 40.9598C14.4 40.5118 14.592 39.7438 14.72 39.2318C14.8138 38.9504 14.8923 38.6536 14.9631 38.3864C15.0371 38.1068 15.1025 37.8595 15.168 37.6958C15.296 37.0558 15.872 34.8798 16.256 33.6638C16.448 32.7678 16.704 32.2558 16.576 32.8958C16.448 33.5998 16.128 36.2878 16.064 36.8638C16.0406 37.0043 16.0086 37.2562 15.968 37.5756L15.968 37.5757L15.968 37.5759L15.968 37.576C15.8977 38.1294 15.8017 38.8855 15.68 39.6158C15.5583 40.3462 15.4623 41.1022 15.392 41.6557C15.3514 41.9753 15.3194 42.2273 15.296 42.3678C15.296 42.6878 15.168 43.7758 15.04 44.7358C14.848 45.7598 14.72 46.8478 14.72 47.1678C14.681 47.4015 14.6184 47.8957 14.5465 48.4631L14.5465 48.4633L14.5464 48.4636C14.5002 48.8287 14.4501 49.2241 14.4 49.5998C14.2893 50.1533 14.1999 50.8345 14.1194 51.4471C14.0604 51.8969 14.0062 52.3097 13.952 52.6078C13.92 52.9278 13.872 53.3598 13.824 53.7918C13.776 54.2238 13.728 54.6558 13.696 54.9758C13.568 55.6158 13.44 56.7038 13.376 57.3438C13.285 57.9504 13.2084 58.5425 13.1257 59.1816L13.1257 59.1818L13.1257 59.1819L13.1257 59.1819L13.1256 59.1822L13.1256 59.1827L13.1255 59.183L13.1255 59.1831L13.1255 59.1832C13.0338 59.8924 12.9346 60.6593 12.8 61.5678C12.672 62.1438 12.672 62.5918 12.672 62.5918C12.672 62.5918 13.632 61.6958 14.72 60.6078L16.704 58.6238V45.5678C16.704 33.5998 16.704 32.5118 16.832 32.5758C16.96 32.6185 17.0026 32.5758 16.96 32.4478C16.896 32.3198 17.088 32.5118 17.728 33.2798L17.8417 33.426L17.8418 33.4261L17.8419 33.4261C18.3456 34.0731 19.3377 35.3473 19.456 35.5838C19.4906 35.6531 19.5628 35.7412 19.642 35.8378L19.642 35.8378L19.642 35.8379C19.7091 35.9197 19.7813 36.0078 19.84 36.0958C19.968 36.2238 20.16 36.4158 20.224 36.5438C20.2472 36.5671 20.2957 36.6409 20.3634 36.7438C20.4822 36.9246 20.6601 37.1952 20.864 37.4398C21.184 37.8238 21.504 38.2718 21.632 38.4638C21.7162 38.548 21.788 38.6445 21.853 38.7317C21.9362 38.8434 22.0081 38.9399 22.08 38.9758C22.144 39.0398 22.272 39.1678 22.336 39.3598C22.4 39.4878 22.464 39.6158 22.528 39.6158C22.528 39.6158 22.656 39.7438 22.784 39.9358C22.912 40.1278 23.04 40.3198 23.104 40.3838C23.1475 40.3838 23.25 40.5316 23.3716 40.7066C23.4289 40.7891 23.4904 40.8778 23.552 40.9598C23.744 41.2798 24 41.5358 24.128 41.6638C24.192 41.7278 24.384 41.9198 24.448 42.1118C24.512 42.2398 24.64 42.4318 24.704 42.4318C24.768 42.4318 24.896 42.5598 24.896 42.6878C24.896 42.7518 25.088 43.0078 25.344 43.2638C25.4021 43.3413 25.4778 43.4364 25.5604 43.5402L25.5605 43.5403C25.7509 43.7794 25.9781 44.0647 26.112 44.2878C26.1973 44.3945 26.2898 44.5154 26.3822 44.6363C26.5671 44.8781 26.752 45.1198 26.88 45.2478L27.136 45.6318L27.328 45.2478C27.52 44.7998 27.776 43.6478 27.776 43.3278C27.776 43.0718 27.136 42.3678 22.464 37.6958L17.088 32.3198C17.024 32.1918 17.536 32.5758 17.984 33.0238C18.24 33.1518 18.496 33.3438 18.56 33.4078C18.688 33.4078 18.752 33.4718 18.752 33.5358C18.752 33.5998 19.52 34.2398 20.416 34.8158C20.608 34.9438 20.8 35.1358 20.864 35.1998C20.864 35.2638 21.056 35.3918 21.2479 35.5198L21.248 35.5198C21.44 35.5838 21.632 35.7118 21.632 35.7758C21.632 35.7758 21.76 35.9038 21.952 36.0318C22.0324 36.0854 22.1128 36.1503 22.1838 36.2075L22.1839 36.2076C22.2824 36.287 22.3628 36.3518 22.4 36.3518C22.464 36.4158 22.784 36.6718 23.104 36.8638C23.1517 36.902 23.1981 36.9388 23.2423 36.9739C23.4947 37.1743 23.68 37.3214 23.68 37.3758C23.68 37.4398 23.808 37.5038 23.936 37.5678C24.128 37.6318 24.256 37.7598 24.32 37.8238C24.3465 37.8503 24.395 37.8878 24.4517 37.9318C24.5321 37.9939 24.629 38.0688 24.704 38.1438C24.896 38.2078 25.024 38.3358 25.024 38.3358C25.0539 38.3658 25.3641 38.6059 25.8103 38.9513L25.811 38.9518C26.3183 39.3446 27.0012 39.8732 27.648 40.3838C27.84 40.5118 28.096 40.7038 28.096 40.7038C28.16 40.7038 28.16 39.6798 28.032 38.8478C27.968 38.5278 27.904 38.4638 27.648 38.2718C27.456 38.2078 27.136 38.0158 26.944 37.8878C26.752 37.7598 26.496 37.6318 26.496 37.6318C26.432 37.6318 26.176 37.5038 25.92 37.3118C25.664 37.1198 25.344 36.9278 25.216 36.9278C25.1307 36.8852 24.9884 36.7856 24.8462 36.6861C24.7751 36.6363 24.704 36.5865 24.64 36.5438C24.49 36.4689 24.3181 36.3719 24.1757 36.2916C24.075 36.2348 23.989 36.1863 23.936 36.1598C23.744 36.0958 23.296 35.8398 22.912 35.5838C22.528 35.3278 21.952 34.9438 21.568 34.7518C21.248 34.6238 20.608 34.2398 20.224 33.9838C19.7761 33.7279 19.2642 33.4719 19.0081 33.3439L19.008 33.3438C18.9627 33.3136 18.9102 33.2798 18.8548 33.2442C18.6756 33.1287 18.4658 32.9936 18.368 32.8958L18.3679 32.8958C18.2399 32.8318 17.984 32.7038 17.792 32.6398C17.664 32.5758 17.472 32.4478 17.344 32.3198C17.28 32.2558 17.664 32.3838 18.432 32.7038C18.8065 32.8536 19.2248 33.0253 19.5715 33.1677L19.5728 33.1682C19.8181 33.2689 20.0275 33.3548 20.16 33.4078C20.416 33.4718 20.864 33.6638 21.12 33.7918C21.376 33.9198 21.696 34.0478 21.888 34.1118C21.984 34.1118 22.188 34.2198 22.392 34.3278C22.46 34.3638 22.528 34.3998 22.592 34.4318C22.752 34.4958 22.944 34.5759 23.1361 34.6559C23.328 34.7359 23.52 34.8158 23.68 34.8798C24 34.9438 24.32 35.0718 24.384 35.1358C24.384 35.1998 24.64 35.3278 24.96 35.3918C25.216 35.4558 25.664 35.6478 25.984 35.8398L27.648 36.4798C27.648 36.4158 27.584 36.0318 27.392 35.5838L27.136 34.8158L25.984 34.4958C25.7589 34.4283 25.4862 34.3528 25.2051 34.275L25.2041 34.2748L25.2036 34.2746C24.6859 34.1314 24.1396 33.9802 23.808 33.8558C23.6874 33.8257 23.549 33.792 23.4029 33.7564L23.402 33.7562L23.4017 33.7561C22.9279 33.6407 22.3733 33.5056 22.08 33.4078C21.696 33.3438 21.056 33.1518 20.672 33.0238C20.3706 32.9234 19.951 32.8229 19.6606 32.7534L19.6606 32.7534L19.6604 32.7534C19.5809 32.7343 19.511 32.7176 19.456 32.7038C18.88 32.5758 17.472 32.1918 17.408 32.0638C17.216 31.9358 18.752 31.6158 21.504 31.2958C22.656 31.1678 25.088 30.8478 25.152 30.7838C25.152 30.7838 25.088 30.5918 24.96 30.3358L24.768 29.8238L24.384 29.8878C24.3137 29.9113 24.1834 29.9433 24.0182 29.9838C23.732 30.0541 23.3412 30.1501 22.976 30.2718C22.7623 30.3253 22.5262 30.3898 22.3005 30.4516L22.3004 30.4516L22.3001 30.4517L22.2999 30.4518C21.9851 30.5379 21.6903 30.6186 21.504 30.6558L21.5039 30.6559L21.5038 30.6559C21.2477 30.7199 20.7359 30.8479 20.352 30.9758L20.2551 31.0036L20.1657 31.0294L20.1629 31.0302L20.1588 31.0314L20.1575 31.0317C19.7329 31.1542 19.2112 31.3046 18.88 31.3598C18.496 31.4878 17.984 31.6158 17.728 31.6798L17.728 31.6798C17.28 31.8078 17.216 31.8078 17.088 31.6798C16.9642 31.4941 17.02 31.4282 17.6609 30.671L17.728 30.5918C17.7733 30.5314 17.8258 30.4638 17.8811 30.3925C18.0604 30.1617 18.2702 29.8914 18.368 29.6958C18.6666 29.3118 19.1573 28.6932 19.84 27.8398C19.968 27.6478 20.416 27.0718 20.8 26.6238L21.44 25.7278L21.184 25.1518C20.928 24.6398 20.864 24.5758 20.8 24.7038C20.8 24.8318 20.736 24.9598 20.672 25.0238C20.608 25.0878 20.416 25.4078 20.224 25.7918C20.032 26.1118 19.84 26.4318 19.776 26.4958C19.776 26.5245 19.7374 26.5918 19.6832 26.6862C19.6167 26.8023 19.5266 26.9593 19.456 27.1358C19.264 27.3918 19.072 27.7758 19.008 27.9038C18.88 27.9678 18.816 28.1598 18.816 28.1598C18.816 28.2238 18.688 28.4798 18.496 28.7998C18.304 29.0558 18.112 29.3758 18.048 29.5038C18.048 29.6318 17.92 29.8238 17.792 30.0158C17.664 30.1438 17.472 30.5278 17.344 30.8478C17.0026 31.4025 16.8106 31.4878 16.768 31.1038C16.768 30.9721 16.8282 30.5089 16.9074 29.9004C16.9436 29.622 16.9838 29.3132 17.024 28.9918C17.0762 28.5742 17.139 28.146 17.1951 27.7635C17.2766 27.2082 17.344 26.7493 17.344 26.5598C17.408 25.9198 17.6 24.5118 17.792 23.2958C17.856 22.8478 17.984 21.8878 18.048 21.1198C18.112 20.7678 18.176 20.2718 18.24 19.7758C18.304 19.2798 18.368 18.7838 18.432 18.4318C18.56 17.6638 18.688 16.5118 18.752 15.8078C18.816 15.1678 19.008 13.7598 19.2 12.7998C19.2501 12.4242 19.3001 12.029 19.3464 11.664L19.3465 11.6633C19.4184 11.0958 19.481 10.6015 19.52 10.3678C19.52 10.0478 19.648 8.95983 19.84 7.93583C19.915 7.33597 19.9899 6.67022 20.0521 6.1187L20.0521 6.1181C20.096 5.72841 20.1335 5.39579 20.16 5.18384L20.16 5.18371C20.224 4.67167 20.352 3.64777 20.48 2.81583C20.608 1.98383 20.672 1.34383 20.672 1.34383C20.672 1.27983 19.776 2.17583 18.688 3.26383ZM31.5557 6.22416C31.636 6.08173 31.733 5.90981 31.8079 5.75986C31.9359 5.56786 32.0639 5.31186 32.0639 5.31186C32.1279 5.31186 32.5119 6.14386 32.5759 6.52785C32.6399 6.78385 32.7679 7.23185 32.8959 7.48785C32.9599 7.74385 33.0239 8.31985 33.0239 8.76785C33.0239 9.72785 32.7039 10.6879 32.1919 11.5199C32.0733 11.6781 31.2213 12.5452 30.0438 13.7435L30.0437 13.7436C29.316 14.4842 28.464 15.3514 27.5839 16.2559C23.8079 20.0319 23.3599 20.4159 23.5519 20.0319C23.6799 19.7119 23.8719 19.3919 23.9999 19.2639C24.1279 19.0719 24.3199 18.7519 24.4479 18.4959C24.6451 18.1016 24.7936 17.853 24.9535 17.5856C25.0531 17.419 25.1571 17.245 25.2799 17.0239L25.28 17.0238C25.472 16.7038 25.6639 16.3838 25.7279 16.2559C25.8063 16.1775 25.9087 15.979 26.0351 15.7341L26.0352 15.734L26.0353 15.7338C26.1152 15.5789 26.2048 15.4054 26.3039 15.2319C26.4625 14.994 26.6457 14.6578 26.8078 14.3604C26.9073 14.1777 26.9989 14.0096 27.0719 13.8879C27.1299 13.7913 27.1995 13.6713 27.2755 13.5404L27.276 13.5396L27.2762 13.5392L27.2762 13.5392C27.4519 13.2366 27.6615 12.8756 27.8399 12.6079C27.9752 12.405 28.0925 12.2022 28.1826 12.0465L28.1826 12.0465C28.2631 11.9075 28.3217 11.806 28.3519 11.7759C28.3519 11.7119 28.5439 11.3919 28.7359 11.0719L28.7359 11.0719L28.7359 11.0719C28.9279 10.7519 29.1839 10.3039 29.3119 10.0479C29.365 9.96833 29.4399 9.83389 29.5278 9.67639C29.652 9.45366 29.802 9.1848 29.9519 8.95986C30.2079 8.57586 30.4639 8.12786 30.5279 7.99986C30.5279 7.87186 30.7199 7.55186 30.9119 7.23186C31 7.11445 31.088 6.97012 31.1699 6.83591C31.2666 6.67748 31.3546 6.53315 31.4239 6.46386C31.4504 6.41084 31.4989 6.3249 31.5557 6.2242L31.5557 6.22416ZM8.70392 13.632C8.61859 13.8027 8.44792 14.0302 8.30569 14.2199C8.23458 14.3147 8.17059 14.4 8.12792 14.464L8.12791 14.464C7.93591 14.72 7.74392 14.976 7.74392 15.04C7.74392 15.04 7.67992 15.232 7.55192 15.424C7.42392 15.616 7.35992 15.744 7.42392 15.872C7.42392 15.872 7.61592 16.192 7.80792 16.576C7.8921 16.7163 7.98858 16.8689 8.07579 17.0069L8.07582 17.0069L8.07587 17.007L8.07593 17.0071C8.18757 17.1837 8.284 17.3362 8.31992 17.408C8.34798 17.4641 8.38834 17.5203 8.42483 17.571C8.47155 17.636 8.51192 17.6921 8.51192 17.728C8.51192 17.792 8.57592 17.92 8.63992 18.048C8.76792 18.176 8.95992 18.496 9.08792 18.816C9.1989 18.964 9.2885 19.1334 9.35672 19.2623C9.40652 19.3564 9.44491 19.429 9.47192 19.456C9.53592 19.52 10.1119 20.48 10.4319 21.12C10.4679 21.1919 10.5643 21.3445 10.676 21.5212L10.6761 21.5213C10.7633 21.6592 10.8598 21.8117 10.9439 21.952C11.0145 22.1285 11.1046 22.2856 11.1712 22.4016L11.1712 22.4017C11.2253 22.496 11.2639 22.5633 11.2639 22.592C11.2639 22.592 11.3279 22.784 11.4559 22.976C11.4947 23.0342 11.5452 23.104 11.6003 23.1803L11.6003 23.1803C11.7272 23.3559 11.8787 23.5655 11.9679 23.744C12.0698 23.9274 12.1587 24.088 12.2374 24.2304L12.2374 24.2304L12.2375 24.2304L12.2375 24.2305C12.6535 24.9824 12.7869 25.2234 13.0559 25.6C13.1048 25.6978 13.1537 25.7862 13.1955 25.8618C13.263 25.984 13.3119 26.0725 13.3119 26.112C13.3119 26.176 13.3759 26.304 13.4399 26.368C13.5039 26.432 13.6959 26.752 13.8879 27.136L13.888 27.1361C14.08 27.4561 14.2719 27.776 14.3359 27.904C14.3999 27.968 14.5919 28.224 14.7199 28.544C14.9462 28.9513 15.1085 29.2306 15.4331 29.7893C15.5675 30.0206 15.7297 30.2999 15.9359 30.656C16.1972 31.0665 16.3278 31.3682 16.3279 31.4469C16.2942 31.4184 16.2459 31.3753 16.1839 31.3184C16.1668 31.2931 16.1481 31.2643 16.1279 31.232C15.9999 31.104 15.8079 30.848 15.6159 30.592L15.6159 30.592C15.4879 30.4 15.2319 30.016 15.0399 29.824C14.7839 29.44 13.9519 28.416 13.6319 28.032C13.5679 27.904 13.3759 27.648 13.2479 27.52C13.1839 27.392 12.7359 26.816 12.2879 26.24C12.1183 26.0219 11.9486 25.7946 11.7929 25.5859C11.5373 25.2436 11.3192 24.9513 11.1999 24.832C11.0719 24.64 10.8799 24.384 10.8159 24.32C10.6879 24.256 10.6239 24.128 10.5599 23.936C10.4959 23.808 10.3679 23.68 10.3679 23.68C10.3039 23.68 10.1759 23.488 10.0479 23.296C9.95403 23.1787 9.86875 23.0613 9.78577 22.9471C9.64248 22.7499 9.50603 22.5621 9.34392 22.4C9.30436 22.3605 9.24036 22.272 9.15191 22.1498L9.15189 22.1498C9.09723 22.0742 9.03324 21.9858 8.95992 21.888C8.83192 21.696 8.70392 21.568 8.63992 21.568C8.63992 21.568 8.51192 21.44 8.51192 21.248C8.44792 21.12 8.31992 20.928 8.19192 20.864C8.12792 20.8 7.93592 20.608 7.87192 20.48C7.67992 20.16 6.78392 19.008 6.33592 18.496C6.20792 18.304 6.14392 18.304 5.95192 18.88C5.91992 19.072 5.85592 19.296 5.79192 19.52C5.72792 19.744 5.66392 19.968 5.63192 20.16L5.56792 20.8L10.9439 26.176C13.4718 28.7039 15.5477 30.7346 16.1839 31.3184C16.28 31.4603 16.328 31.4947 16.3279 31.4469C16.36 31.4741 16.3789 31.488 16.3839 31.488C16.4479 31.424 16.4479 31.296 16.3839 31.168C16.348 31.1321 16.2919 30.9952 16.2269 30.8368C16.1762 30.7131 16.12 30.5763 16.0639 30.464C15.9359 30.144 15.6159 29.376 15.3599 28.8C15.2692 28.5733 15.1785 28.3385 15.0935 28.1185C14.9386 27.7175 14.8026 27.3653 14.7199 27.2C14.6559 26.944 14.4639 26.496 14.2719 26.176C14.1439 25.856 14.0159 25.536 14.0159 25.408C13.9963 25.3688 13.9707 25.3056 13.9391 25.2276C13.8675 25.0508 13.7651 24.798 13.6319 24.576C13.5923 24.477 13.5465 24.3718 13.5022 24.2699C13.4034 24.0428 13.3119 23.8324 13.3119 23.744C13.2479 23.616 13.056 23.1681 12.864 22.7202L12.8639 22.72C12.6719 22.336 12.5439 21.952 12.5439 21.888C12.5439 21.8485 12.495 21.7356 12.4275 21.5796L12.4274 21.5795C12.3857 21.4831 12.3368 21.3702 12.2879 21.248C12.0513 20.7748 11.7447 20.0216 11.4716 19.3507L11.4716 19.3507L11.4716 19.3506L11.4716 19.3506L11.4715 19.3506L11.4715 19.3505L11.4715 19.3504L11.4714 19.3503L11.4714 19.3503L11.4713 19.35C11.3752 19.1139 11.2832 18.8879 11.1999 18.688C11.1585 18.5222 11.0365 18.249 10.9209 17.9902L10.9209 17.9902L10.9207 17.9899L10.9207 17.9898L10.9207 17.9898C10.8579 17.8491 10.797 17.7127 10.7519 17.6C10.5599 17.28 10.4319 16.96 10.4319 16.896C10.4319 16.896 10.3679 16.576 10.1759 16.256C10.0479 16 9.91992 15.68 9.91992 15.616C9.91992 15.5765 9.84659 15.3903 9.74525 15.1329L9.74523 15.1329L9.74523 15.1329C9.68259 14.9738 9.60925 14.7876 9.53592 14.592C9.35087 14.2682 9.19925 13.9109 9.10526 13.6894L9.10525 13.6894C9.06922 13.6045 9.04165 13.5395 9.02392 13.504C8.95992 13.248 8.95992 13.248 8.70392 13.632ZM18.048 30.9119C17.024 31.7439 17.408 31.2959 19.648 29.0559L22.208 26.4319L22.336 26.6879C22.411 26.7628 22.486 26.8598 22.5481 26.9401C22.592 26.9969 22.6295 27.0453 22.656 27.0719C22.784 27.1999 22.784 27.1999 22.464 27.5199C22.389 27.5948 22.2701 27.6918 22.1716 27.7721L22.1716 27.7721C22.1019 27.8289 22.0425 27.8774 22.016 27.9039C21.888 27.9039 21.632 28.0959 21.44 28.2879L21.4399 28.2879L21.4399 28.2879L21.4399 28.288L21.4398 28.288L21.4398 28.288L21.4398 28.288L21.4397 28.2881L21.4397 28.2881L21.4397 28.2881C20.7996 28.8002 19.5199 29.8239 18.816 30.3359C18.56 30.4639 18.24 30.7199 18.048 30.9119ZM23.168 28.2239C23.04 28.3519 22.848 28.4799 22.656 28.5439C22.6133 28.5652 22.5635 28.5866 22.5138 28.6079C22.4142 28.6506 22.3146 28.6933 22.272 28.7359C22.245 28.7629 22.1724 28.8013 22.0783 28.8511L22.0782 28.8511L22.0782 28.8511C21.9493 28.9193 21.7799 29.0089 21.632 29.1199C21.376 29.2479 21.056 29.4399 20.864 29.5679L20.096 29.9519C19.84 30.1439 19.584 30.2719 19.456 30.3359C19.392 30.3999 19.0721 30.5918 18.7522 30.7838L18.752 30.7839L18.752 30.7839L18.112 31.1679C18.048 31.2319 17.92 31.2959 17.792 31.3599C17.6942 31.3599 17.5591 31.4346 17.4437 31.4984L17.4436 31.4984L17.4436 31.4984C17.408 31.5181 17.3742 31.5368 17.344 31.5519C17.216 31.7439 17.28 31.7439 17.728 31.4879C17.984 31.3599 18.304 31.2959 18.368 31.2959C18.432 31.2959 18.56 31.2319 18.688 31.1679C18.88 31.0399 19.3919 30.8479 19.9039 30.6559L19.904 30.6559C20.352 30.4639 20.8 30.2719 20.864 30.2079C20.928 30.2079 21.248 30.0799 21.568 29.9519C21.7549 29.8896 21.957 29.797 22.1448 29.7109L22.1448 29.7109C22.3427 29.6202 22.5246 29.5368 22.656 29.5039L22.656 29.5039C22.912 29.3759 23.296 29.1839 23.488 29.1839C24.064 28.9919 24.064 28.9919 23.744 28.5439C23.616 28.2879 23.488 28.0959 23.424 28.0959L23.168 28.2239ZM7.10392 31.3599L6.84792 30.7199C6.84792 30.6559 6.84792 30.6559 8.83192 30.9119C9.85592 31.1039 11.1999 31.2959 11.8399 31.3599C13.0559 31.4879 15.5519 31.8079 15.6799 31.8719C15.7439 31.8719 13.8879 31.9359 11.5839 31.9359H7.42392L7.10392 31.3599ZM18.3039 32.128C19.6479 32.384 21.5679 32.64 22.8479 32.768C23.5519 32.832 24.5759 32.96 25.1519 33.088C25.5927 33.1321 25.9727 33.2065 26.1876 33.2486L26.1876 33.2486C26.2847 33.2676 26.348 33.28 26.3679 33.28C26.5599 33.28 26.4959 33.024 26.2399 32.512L25.9839 32H21.7599C17.8559 32 17.5999 32.064 18.3039 32.128ZM15.104 33.152C15.296 33.024 15.552 32.832 15.744 32.64L16.128 32.384C16.1744 32.4304 15.5821 33.0147 14.7409 33.8444L14.7404 33.8449C14.421 34.1599 14.0658 34.5103 13.696 34.88L11.2 37.376L10.88 37.056C10.8447 37.0208 10.8122 36.9898 10.7829 36.962C10.6903 36.874 10.6313 36.8179 10.6264 36.7574C10.6178 36.6512 10.7762 36.5314 11.2129 36.2013L11.2129 36.2012C11.3031 36.1331 11.4051 36.0559 11.52 35.968C11.6775 35.8368 11.8457 35.7056 12.0026 35.5832L12.0032 35.5828L12.0032 35.5828C12.2287 35.4069 12.4309 35.2492 12.544 35.136C12.6832 34.9968 12.9234 34.824 13.1425 34.6662C13.2256 34.6064 13.3057 34.5488 13.376 34.496C14.016 33.984 14.848 33.344 15.104 33.152ZM15.9224 32.9368L15.9223 32.9369C15.8273 33.0493 15.7216 33.1744 15.6159 33.2801C15.5519 33.4081 15.4399 33.5521 15.3279 33.6961C15.2159 33.8401 15.1039 33.9841 15.0399 34.1121C14.992 34.176 14.9402 34.2438 14.8883 34.3116L14.8883 34.3117L14.8879 34.3121C14.7319 34.5161 14.5759 34.7201 14.5279 34.8161C14.3999 34.9441 14.1439 35.2641 13.9519 35.5841C13.7813 35.7548 13.6391 35.9254 13.5443 36.0392L13.5442 36.0392L13.5442 36.0392C13.4968 36.0961 13.4613 36.1388 13.4399 36.1601C13.3759 36.2241 13.2479 36.4161 13.1199 36.6081C13.0559 36.8001 12.9279 36.9281 12.8639 36.9281C12.8639 36.9281 12.7359 37.0561 12.6079 37.2481C12.5759 37.3121 12.5119 37.4081 12.4479 37.5041C12.3839 37.6001 12.3199 37.6961 12.2879 37.7601C11.9039 38.0801 11.9039 38.2081 12.1599 38.7841L12.4159 39.3601L12.6719 38.9121C12.7359 38.7201 12.9279 38.4001 13.0559 38.2081C13.1839 38.0161 13.3119 37.8241 13.3119 37.7601C13.3119 37.7601 13.3759 37.6321 13.4399 37.5681C13.4771 37.5309 13.5575 37.3857 13.656 37.2077L13.6561 37.2077L13.6562 37.2075C13.7272 37.0793 13.8075 36.9341 13.8879 36.8001C14.0799 36.4161 14.2719 36.0961 14.3999 35.9681C14.4264 35.9151 14.4748 35.8293 14.5316 35.7287L14.5317 35.7284C14.612 35.586 14.7089 35.4141 14.7839 35.2641C14.8607 35.1233 14.9273 35.0004 14.9872 34.8898L14.9872 34.8898L14.9873 34.8897C15.2268 34.4474 15.36 34.2017 15.6159 33.7921C15.9999 33.1521 16.3839 32.5121 16.3199 32.4481C16.3199 32.4481 16.1919 32.5761 16.1279 32.7041C16.0704 32.7616 16.0001 32.8449 15.9226 32.9366L15.9224 32.9368ZM17.04 32.8321C16.992 32.7361 16.9599 32.6721 16.9599 32.6401C16.9599 32.5121 17.344 33.0241 17.344 33.0881C17.344 33.1521 17.5359 33.4721 17.7279 33.7281C17.92 33.9841 18.1119 34.3041 18.1119 34.4321C18.1119 34.4735 18.192 34.6215 18.2832 34.7902C18.3332 34.8827 18.3866 34.9814 18.4319 35.0721C18.6239 35.2641 18.9439 35.8401 19.136 36.2241C19.2416 36.4355 19.3861 36.6856 19.516 36.9105L19.516 36.9106L19.516 36.9106C19.6221 37.0943 19.7184 37.2611 19.7759 37.3761C19.8208 37.4434 19.8814 37.5421 19.9494 37.653L19.9495 37.6532L19.9496 37.6533C20.0757 37.8588 20.2273 38.1059 20.3519 38.2721C20.4269 38.4221 20.5239 38.572 20.6042 38.6963L20.6042 38.6963C20.661 38.7842 20.7094 38.8591 20.736 38.9121C20.7999 38.9761 20.8639 39.1041 20.8639 39.1041C20.8639 39.1681 20.9919 39.4881 21.2479 39.8721C21.504 40.1921 21.6319 40.5121 21.6319 40.5761C21.6319 40.6157 21.6808 40.6797 21.7484 40.7681L21.7484 40.7682L21.7485 40.7683C21.7903 40.8229 21.8391 40.8869 21.8879 40.9601C21.9374 41.0342 21.9963 41.137 22.0611 41.2499C22.1642 41.4295 22.2821 41.6349 22.4 41.7921C22.4871 42.0101 22.604 42.1984 22.6899 42.3368L22.69 42.3368C22.7302 42.4015 22.7636 42.4553 22.7839 42.4961C22.8479 42.5601 22.9119 42.6241 22.9119 42.6881C22.9119 42.7521 23.0399 43.0081 23.2319 43.2641C23.3498 43.4213 23.4677 43.6267 23.5708 43.8064C23.6356 43.9193 23.6945 44.022 23.7439 44.0961C23.8079 44.2881 24.0639 44.8001 24.32 45.1841C24.5759 45.5681 24.832 46.0801 24.896 46.2081C24.9439 46.3521 25.0999 46.6041 25.2559 46.8561L25.2559 46.8561C25.3079 46.9401 25.3599 47.0241 25.4079 47.1041C25.5999 47.3601 25.7919 47.6801 25.7919 47.6801C25.7919 47.7441 25.792 47.8721 25.9199 47.9361C25.9644 48.0028 25.9934 48.0463 26.0016 48.0934C26.0171 48.1821 25.9591 48.2836 25.7919 48.5761C25.728 48.7041 25.632 48.864 25.5361 49.0239L25.536 49.024L25.536 49.0241C25.44 49.1841 25.344 49.3441 25.2799 49.4721C25.0879 49.6641 24.9599 49.9201 24.9599 49.9201C24.9599 49.9841 24.8319 50.1761 24.7039 50.3041L24.448 50.5601L24.128 49.9201C24.064 49.7601 23.968 49.5521 23.872 49.3441C23.7759 49.1361 23.6799 48.9281 23.6159 48.7681C23.2959 47.9361 22.5279 46.0161 22.4639 45.9521C22.3999 45.8881 22.336 45.6961 22.336 45.5681C22.3152 45.5267 22.2878 45.4518 22.2537 45.3586L22.2537 45.3585L22.2537 45.3584L22.2536 45.3583C22.1823 45.1634 22.0818 44.8885 21.9519 44.6721C21.9093 44.5655 21.8595 44.4446 21.8098 44.3237L21.8097 44.3237L21.8097 44.3236L21.8096 44.3234C21.7101 44.0817 21.6106 43.8401 21.5679 43.7121C21.5333 43.6082 21.4611 43.448 21.3819 43.2721L21.3819 43.272C21.3148 43.123 21.2426 42.9628 21.1839 42.8161C21.0559 42.5601 20.9279 42.2401 20.9279 42.2401C20.9279 42.1761 20.7999 41.8561 20.608 41.5361C20.5102 41.2428 20.375 40.9121 20.2596 40.6297C20.224 40.5424 20.1902 40.4597 20.16 40.3841C19.7759 39.2961 19.3919 38.4001 19.136 37.8881C19.0861 37.7634 19.0265 37.6387 18.9723 37.5254C18.8875 37.3479 18.8159 37.1982 18.8159 37.1201C18.7964 37.0809 18.7708 37.0177 18.7392 36.9397L18.7391 36.9397C18.6675 36.7629 18.5651 36.5101 18.4319 36.2881C18.3039 35.9041 18.1119 35.4561 18.048 35.3281C17.9839 35.1361 17.8559 34.7521 17.6639 34.4321C17.6151 34.3099 17.5662 34.197 17.5244 34.1006C17.4568 33.9446 17.4079 33.8317 17.4079 33.7921C17.4079 33.7281 17.3439 33.4721 17.216 33.2161C17.152 33.0562 17.088 32.9282 17.04 32.8322L17.04 32.8321ZM16.832 32.9598C16.832 33.0878 16.832 33.4718 16.896 33.7278C17.152 35.3278 17.344 36.6718 17.408 37.3118C17.408 37.4945 17.4705 37.969 17.548 38.5569L17.548 38.557L17.548 38.5571C17.6063 38.9992 17.673 39.5054 17.728 39.9998C17.8497 40.7301 17.9457 41.4862 18.016 42.0396L18.016 42.0397L18.016 42.0398C18.0566 42.3593 18.0886 42.6113 18.112 42.7518C18.112 43.1358 18.24 44.0318 18.368 44.7998C18.688 46.9118 18.752 47.4238 18.88 48.4478C18.88 48.9598 19.008 49.9198 19.136 50.4958C19.264 51.1358 19.392 52.1598 19.456 52.7358C19.52 53.3758 19.648 54.2717 19.712 54.7197L19.712 54.7198L19.776 55.5518L21.056 54.2718L22.336 52.9918L22.272 52.6718C22.208 52.4798 22.08 52.0319 21.952 51.5839L21.952 51.5838C21.824 51.1998 21.632 50.4958 21.568 50.1118C21.44 49.7278 21.248 49.0238 21.12 48.4478C21.0624 48.2177 20.9661 47.8841 20.8601 47.5168C20.7302 47.067 20.5857 46.5666 20.48 46.1438C20.288 45.3758 20.032 44.4158 19.904 43.9678C19.8899 43.9186 19.8751 43.8671 19.8598 43.814C19.8482 43.7739 19.8363 43.7329 19.8243 43.6913C19.7068 43.2852 19.5717 42.8182 19.52 42.5598C19.4683 42.3015 19.3332 41.8344 19.2157 41.4283C19.1876 41.3315 19.1606 41.2381 19.136 41.1518C19.0859 40.9764 19.0358 40.7814 18.9895 40.6014C18.9176 40.3215 18.8549 40.0777 18.816 39.9998C18.752 39.6798 18.304 37.9518 17.728 35.9678C17.6 35.3918 17.408 34.6238 17.28 34.3038C17.216 33.9198 17.088 33.4078 16.96 33.1518C16.9344 33.075 16.9139 33.011 16.8975 32.9598C16.8643 32.8562 16.848 32.805 16.8399 32.8063C16.832 32.8075 16.832 32.8587 16.832 32.9598ZM0.963431 52.7297C1.2166 52.2866 1.30074 52.1393 5.82392 47.6799C8.12792 45.3119 10.0479 43.3919 10.0479 43.3919C10.1119 43.3919 9.79192 43.9679 9.47192 44.4159C9.34392 44.6719 9.21592 44.9279 9.21592 44.9919C9.21592 44.9919 9.02392 45.3119 8.76792 45.6959L8.76787 45.6959C8.57589 46.0159 8.38392 46.3359 8.38392 46.3999C8.38392 46.3999 8.31992 46.5279 8.25592 46.5919C8.21873 46.6291 8.13831 46.7743 8.03978 46.9523C7.96877 47.0806 7.88834 47.2258 7.80792 47.3599L7.8079 47.3599C7.61591 47.6799 7.42392 47.9999 7.35992 48.0639C7.35992 48.0926 7.32132 48.1599 7.26719 48.2542C7.20061 48.3703 7.11053 48.5273 7.03992 48.7039C6.92204 48.861 6.80415 49.0665 6.70108 49.2461C6.63628 49.359 6.57733 49.4617 6.52792 49.5359C6.39992 49.7279 6.33592 49.9199 6.33592 49.9199C6.33592 49.9541 6.28093 50.0434 6.21018 50.1582C6.14874 50.2579 6.07542 50.3769 6.01592 50.4959C5.82392 50.7519 5.63192 51.0719 5.63192 51.1359C5.60265 51.1651 5.55998 51.2346 5.50392 51.3258C5.43743 51.4341 5.3521 51.573 5.24792 51.7119L5.2479 51.7119C5.11991 51.9679 4.99192 52.2239 4.99192 52.2879C4.99192 52.2879 4.79992 52.6079 4.60792 52.8639C4.41592 53.1839 4.28792 53.5039 4.28792 53.5039C4.28792 53.5679 4.15992 53.7599 3.96792 54.0159C3.77592 54.2719 3.64792 54.5279 3.58392 54.6559C3.58392 54.7308 3.54 54.8058 3.50362 54.8679C3.47789 54.9119 3.45592 54.9493 3.45592 54.9759C3.32792 55.1039 2.81592 55.9999 2.30392 56.9599C2.21859 57.0879 2.07637 57.3296 1.93415 57.5714C1.86304 57.6923 1.79193 57.8132 1.72792 57.9199C1.53592 58.1759 1.40792 58.4959 1.40792 58.5599C1.27992 58.8159 0.767925 57.6639 0.447925 56.3199C0.191925 55.1039 0.383925 53.8239 0.959925 52.7359L0.963431 52.7297Z" fill="url(#paint0_linear_1_2790)"/>
<path d="M33.9199 44.416C33.5359 44.8 33.4719 45.504 33.6639 45.824C33.7919 45.952 33.8559 45.952 33.9839 45.888C34.2399 45.76 34.2399 45.76 34.1119 45.376C34.0479 45.184 34.0479 44.992 34.1119 44.8C34.2399 44.544 34.2399 44.416 34.1759 44.352C34.0906 44.2666 34.0053 44.288 33.9199 44.416Z" fill="#8DC63F"/>
<path d="M34.6881 44.5442C34.5601 44.7362 34.4961 44.9922 34.4961 45.3122C34.4961 45.8882 34.6241 46.0162 34.8801 45.8882C35.0721 45.8242 35.0721 45.7602 35.0081 45.2482C35.0081 44.9282 35.0081 44.7362 35.0721 44.6722C35.2001 44.6082 35.2001 44.4162 35.0721 44.3522C34.9441 44.3095 34.8161 44.3735 34.6881 44.5442Z" fill="#8DC63F"/>
<path d="M131.264 44.4798C131.072 44.5438 131.072 44.6078 131.072 44.6718C131.264 44.9918 131.264 45.3118 131.136 45.6318C131.008 45.7598 131.008 45.8878 131.072 45.9518C131.2 46.0798 131.264 46.0798 131.456 45.7598C131.648 45.4398 131.712 44.7998 131.648 44.4798C131.584 44.3518 131.52 44.3518 131.264 44.4798Z" fill="#8DC63F"/>
<path d="M132.16 44.4798C131.968 44.5438 131.968 44.6078 131.968 44.6718C132.16 44.9918 132.16 45.3118 132.032 45.6318C131.904 45.7598 131.904 45.8878 131.968 45.9518C132.096 46.0798 132.16 46.0798 132.416 45.7598C132.544 45.4398 132.608 44.7998 132.544 44.4798C132.48 44.3518 132.416 44.3518 132.16 44.4798Z" fill="#8DC63F"/>
<path d="M56.2559 44.672C56.1279 44.864 56.1279 44.928 56.2559 45.12C56.3199 45.248 56.4479 45.312 56.5119 45.312C56.7039 45.312 57.0239 44.992 57.0239 44.864C57.0239 44.736 56.7039 44.416 56.5119 44.416C56.4479 44.416 56.3199 44.544 56.2559 44.672Z" fill="#8DC63F"/>
<path d="M65.2801 44.672C65.1521 44.864 65.1521 44.928 65.2801 45.12C65.3441 45.248 65.4721 45.312 65.5361 45.312C65.7281 45.312 66.0481 44.992 66.0481 44.864C66.0481 44.736 65.7281 44.416 65.5361 44.416C65.4721 44.416 65.3441 44.544 65.2801 44.672Z" fill="#8DC63F"/>
<path d="M102.656 44.544C102.4 44.672 102.464 45.12 102.656 45.248C102.784 45.312 102.848 45.312 102.912 45.312C103.04 45.312 103.296 45.056 103.296 44.864C103.296 44.736 103.04 44.416 102.912 44.416C102.848 44.416 102.72 44.48 102.656 44.544Z" fill="#8DC63F"/>
<path d="M36.9919 44.736C36.1599 45.056 35.6479 45.824 35.7119 46.784C35.7759 47.744 36.3519 48.384 37.3119 48.512C37.7599 48.576 38.4639 48.448 38.7839 48.192L39.0399 48L38.8479 47.808L38.6559 47.552L38.3999 47.744C37.7599 48.128 36.7999 47.872 36.5439 47.296C36.4159 46.848 36.4159 46.208 36.5439 45.888C36.8639 45.312 37.6959 45.056 38.3359 45.44C38.6559 45.568 38.6559 45.568 38.7839 45.376C38.9759 45.12 38.9759 45.056 38.5919 44.864C38.1439 44.672 37.4399 44.608 36.9919 44.736Z" fill="#8DC63F"/>
<path d="M70.912 44.7999C70.976 44.9279 71.296 45.4399 71.616 46.0159L72.256 47.0399V47.8079V48.5759H72.576H72.96V47.8079V47.0399L73.664 45.8879L74.368 44.6719L74.048 44.6079C73.664 44.6079 73.6 44.6719 73.024 45.6959L72.576 46.5279L72.256 45.8239C71.616 44.6719 71.552 44.6079 71.168 44.6079C70.784 44.6079 70.784 44.6079 70.912 44.7999Z" fill="#8DC63F"/>
<path d="M83.9041 46.5919V48.5759H84.2241H84.608V46.5919V44.6079H84.2241H83.9041V46.5919Z" fill="#8DC63F"/>
<path d="M112.448 46.0159C112.448 47.8079 112.384 47.8719 111.552 47.9359C111.36 47.9999 111.296 47.9999 111.296 48.2559C111.232 48.4479 111.296 48.4479 111.552 48.5119C112.192 48.6399 112.896 48.2559 113.024 47.6799C113.088 47.4879 113.152 46.7199 113.152 46.0159V44.6079H112.768H112.448V46.0159Z" fill="#8DC63F"/>
<path d="M100.672 45.3119C100.608 45.6319 100.544 45.6959 100.352 45.7599C100.096 45.7599 100.096 45.8239 100.096 46.0159C100.096 46.1439 100.224 46.2079 100.288 46.2079C100.48 46.2079 100.48 46.2719 100.544 47.2319C100.544 48.3839 100.608 48.5119 101.312 48.5119C101.824 48.5119 102.016 48.3839 101.888 48.1279C101.824 47.9999 101.696 47.9999 101.504 47.9999C101.184 48.0639 101.12 47.9359 101.12 47.0399V46.2079H101.824H102.464V47.4239V48.5759H102.848H103.168V47.1679V45.6959H102.144H101.12V45.3119C101.12 44.9279 101.12 44.9279 100.928 44.9279C100.736 44.8639 100.672 44.9279 100.672 45.3119Z" fill="#8DC63F"/>
<path fill-rule="evenodd" clip-rule="evenodd" d="M41.4079 45.9518C42.1119 46.3998 42.1759 47.7438 41.4719 48.2558C40.9599 48.7038 39.9999 48.5758 39.5519 48.0638C38.9119 47.3598 39.2319 46.0798 40.1279 45.7598C40.5119 45.6958 41.1519 45.7598 41.4079 45.9518ZM40.6399 46.2078C40.1919 46.2078 39.9359 46.5278 39.9359 47.1038C39.9359 47.7438 40.1919 47.9998 40.6399 47.9998C41.1519 47.9998 41.2799 47.8078 41.2799 47.1038C41.2799 46.7198 41.2799 46.5918 41.1519 46.3998C41.0239 46.2718 40.8533 46.2078 40.6399 46.2078Z" fill="#8DC63F"/>
<path d="M42.4961 47.1039V48.5759H42.8161H43.1361V47.5519C43.1361 46.6559 43.1361 46.5279 43.3281 46.3359C43.5841 46.1439 43.9681 46.2079 44.0961 46.4639C44.1601 46.6559 44.2241 47.1039 44.2241 47.6159V48.5759H44.5441H44.8641V47.5519C44.8641 46.3999 44.9281 46.2079 45.3761 46.2079C45.7601 46.2079 45.8241 46.3999 45.8241 47.5519V48.5119H46.1441H46.4641V47.4879C46.4641 46.2079 46.3361 45.8879 45.8241 45.7599C45.4401 45.6319 44.9281 45.7599 44.7361 46.0159C44.6081 46.2079 44.6081 46.2079 44.4161 45.9519C44.0961 45.6319 43.8401 45.6319 43.4561 45.8239L43.1361 46.0159L43.0721 45.8239C43.0721 45.7386 42.9868 45.6959 42.8161 45.6959H42.4961V47.1039Z" fill="#8DC63F"/>
<path fill-rule="evenodd" clip-rule="evenodd" d="M47.168 47.5518V45.6958H47.424C47.5946 45.6958 47.7013 45.7598 47.744 45.8878C47.808 46.0158 47.808 46.0158 48.128 45.8878C48.512 45.6958 49.024 45.6958 49.28 45.8878C49.536 46.0798 49.792 46.6558 49.792 47.1038C49.792 47.5518 49.472 48.1278 49.216 48.3198C48.832 48.5758 48.448 48.5758 48.128 48.4478C48 48.3198 47.808 48.3198 47.808 48.3198C47.808 48.3198 47.808 48.5758 47.808 48.8958V49.4718H47.168V47.5518ZM48 46.3998C47.808 46.5918 47.808 46.7198 47.808 47.2318C47.808 47.8718 47.936 47.9998 48.384 47.9998C48.832 47.9998 49.024 47.7438 49.024 47.1038C49.024 46.8478 49.024 46.5278 48.896 46.3998C48.704 46.1438 48.256 46.1438 48 46.3998Z" fill="#8DC63F"/>
<path fill-rule="evenodd" clip-rule="evenodd" d="M51.9041 45.824C52.3521 46.016 52.4801 46.4 52.4801 47.552V48.576H52.2241C52.0534 48.576 51.9681 48.512 51.9681 48.384C51.9041 48.32 51.9041 48.192 51.9041 48.192C51.8401 48.192 51.7121 48.256 51.5201 48.384C51.0721 48.576 50.8161 48.576 50.4961 48.448C50.2401 48.256 50.1121 48.128 50.1121 47.744C50.1121 47.296 50.5601 47.04 51.3921 46.912C51.8401 46.848 51.9681 46.72 51.7121 46.4C51.5841 46.208 51.2641 46.208 50.6241 46.4C50.4321 46.4 50.3681 46.4 50.3681 46.272C50.2401 46.08 50.3681 45.952 50.8161 45.824C51.2641 45.696 51.5201 45.696 51.9041 45.824ZM51.5201 47.296C51.0721 47.296 50.8161 47.488 50.8161 47.808C50.8161 48.064 50.8161 48.064 51.0721 48.064C51.5201 48.128 51.8401 47.872 51.8401 47.552C51.8401 47.36 51.7761 47.296 51.5201 47.296Z" fill="#8DC63F"/>
<path d="M53.1841 47.1038V48.5758H53.5041H53.7601V47.5518C53.7601 46.5278 53.8241 46.5278 54.0161 46.3358C54.3361 46.1438 54.7201 46.2078 54.8481 46.3998C54.9121 46.4638 54.9761 46.9758 54.9761 47.5518V48.5758H55.2961H55.5521V47.4878C55.5521 46.7198 55.5521 46.3358 55.4241 46.1438C55.2321 45.6958 54.3361 45.5678 53.9521 45.9518C53.7601 46.0798 53.7601 46.0798 53.7601 45.8878C53.6961 45.7598 53.6321 45.6958 53.4401 45.6958H53.1841V47.1038Z" fill="#8DC63F"/>
<path d="M56.1919 47.1038V48.5758H56.5119H56.8319V47.1038V45.6958H56.5119H56.1919V47.1038Z" fill="#8DC63F"/>
<path fill-rule="evenodd" clip-rule="evenodd" d="M59.6479 45.9518C60.4159 46.3998 60.4159 47.7438 59.7119 48.2558C59.1999 48.7038 58.3039 48.5758 57.8559 48.0638C57.2159 47.3598 57.5359 46.0798 58.4319 45.7598C58.7519 45.6958 59.3919 45.7598 59.6479 45.9518ZM58.8799 46.2078C58.4319 46.2078 58.1759 46.5278 58.1759 47.1038C58.1759 47.7438 58.4319 47.9998 58.8799 47.9998C59.3919 47.9998 59.5839 47.8078 59.5839 47.1038C59.5839 46.7198 59.5199 46.5918 59.3919 46.3998C59.2639 46.2718 59.0932 46.2078 58.8799 46.2078Z" fill="#8DC63F"/>
<path d="M60.864 47.1038V48.5758H61.184H61.504V47.5518C61.504 46.5278 61.504 46.5278 61.696 46.3358C62.016 46.1438 62.464 46.2078 62.592 46.3998C62.592 46.4638 62.656 46.9758 62.656 47.5518V48.5758H62.976H63.296V47.4878C63.296 46.7198 63.232 46.3358 63.168 46.1438C62.912 45.6958 62.08 45.5678 61.632 45.9518C61.504 46.0798 61.504 46.0798 61.44 45.8878C61.376 45.7598 61.312 45.6958 61.12 45.6958H60.864V47.1038Z" fill="#8DC63F"/>
<path d="M65.28 47.1038V48.5758H65.536H65.856V47.1038V45.6958H65.536H65.28V47.1038Z" fill="#8DC63F"/>
<path d="M66.688 47.1038V48.5758H67.008H67.328V47.5518C67.328 46.5278 67.328 46.5278 67.52 46.3358C67.84 46.1438 68.288 46.2078 68.416 46.3998C68.416 46.4638 68.48 46.9758 68.48 47.5518V48.5758H68.8H69.12V47.4878C69.12 46.7198 69.056 46.3358 68.992 46.1438C68.736 45.6958 67.904 45.5678 67.456 45.9518C67.328 46.0798 67.328 46.0798 67.264 45.8878C67.2 45.7598 67.136 45.6958 66.944 45.6958H66.688V47.1038Z" fill="#8DC63F"/>
<path fill-rule="evenodd" clip-rule="evenodd" d="M76.1599 45.9518C76.8639 46.3998 76.9279 47.7438 76.2239 48.2558C75.7119 48.7038 74.7519 48.5758 74.3039 48.0638C73.6639 47.3598 73.9839 46.0798 74.8799 45.7598C75.1999 45.6958 75.9039 45.7598 76.1599 45.9518ZM75.3919 46.2078C74.8799 46.2078 74.6239 46.5278 74.6239 47.1038C74.6239 47.7438 74.8799 47.9998 75.3919 47.9998C75.8399 47.9998 76.0319 47.8078 76.0319 47.1038C76.0319 46.7198 75.9679 46.5918 75.8399 46.3998C75.7546 46.2718 75.6052 46.2078 75.3919 46.2078Z" fill="#8DC63F"/>
<path d="M77.248 46.7838C77.248 47.9998 77.376 48.3198 77.824 48.4478C78.208 48.5758 78.336 48.5758 78.72 48.3838C78.912 48.2558 79.104 48.1918 79.104 48.1918C79.104 48.1918 79.104 48.2558 79.168 48.3838C79.168 48.5118 79.2534 48.5758 79.424 48.5758H79.68V47.1038V45.6958H79.36H79.04V46.7198C79.04 47.6798 79.04 47.7438 78.848 47.8718C78.592 48.0638 78.208 48.0638 78.016 47.8718C77.888 47.7438 77.888 47.5518 77.888 46.7198V45.6958H77.568H77.248V46.7838Z" fill="#8DC63F"/>
<path d="M80.384 47.1038V48.5758H80.704H81.024V47.6798C81.024 46.9118 81.024 46.7838 81.216 46.5278C81.344 46.3998 81.472 46.3358 81.664 46.3358C81.92 46.3358 81.984 46.2718 81.984 46.0158C82.0267 45.8452 82.0054 45.7385 81.92 45.6958C81.728 45.6318 81.344 45.7598 81.152 45.9518L81.024 46.1438L80.96 45.8878C80.896 45.7598 80.832 45.6958 80.64 45.6958H80.384V47.1038Z" fill="#8DC63F"/>
<path d="M85.376 47.1038V48.5758H85.696H86.016V47.5518C86.016 46.5278 86.016 46.5278 86.272 46.3358C86.528 46.1438 86.976 46.2078 87.104 46.3998C87.168 46.4638 87.168 46.9758 87.168 47.5518V48.5758H87.488H87.808V47.4878C87.808 46.7198 87.808 46.3358 87.68 46.1438C87.424 45.6958 86.592 45.5678 86.208 45.9518C86.016 46.0798 86.016 46.0798 85.952 45.8878C85.952 45.7598 85.824 45.6958 85.632 45.6958H85.376V47.1038Z" fill="#8DC63F"/>
<path d="M88.512 47.1038V48.5758H88.832H89.152V47.5518C89.152 46.5278 89.152 46.5278 89.344 46.3358C89.664 46.1438 90.112 46.2078 90.24 46.3998C90.24 46.4638 90.304 46.9758 90.304 47.5518V48.5758H90.624H90.944V47.4878C90.944 46.7198 90.88 46.3358 90.816 46.1438C90.56 45.6958 89.728 45.5678 89.28 45.9518C89.152 46.0798 89.152 46.0798 89.088 45.8878C89.088 45.7598 88.96 45.6958 88.768 45.6958H88.512V47.1038Z" fill="#8DC63F"/>
<path fill-rule="evenodd" clip-rule="evenodd" d="M93.696 45.9518C94.4 46.3998 94.464 47.7438 93.76 48.2558C93.248 48.7038 92.288 48.5758 91.84 48.0638C91.2 47.3598 91.52 46.0798 92.416 45.7598C92.8 45.6958 93.44 45.7598 93.696 45.9518ZM92.928 46.2078C92.48 46.2078 92.224 46.5278 92.224 47.1038C92.224 47.7438 92.48 47.9998 92.928 47.9998C93.376 47.9998 93.568 47.8078 93.568 47.1038C93.568 46.7198 93.568 46.5918 93.44 46.3998C93.312 46.2718 93.1414 46.2078 92.928 46.2078Z" fill="#8DC63F"/>
<path d="M94.4641 45.7598C94.4641 45.7598 94.6561 46.3998 94.9761 47.1678L95.5521 48.5758H95.8081H96.1281L96.6401 47.2958C96.8961 46.5918 97.1521 45.9518 97.2161 45.8238C97.2161 45.6958 97.2161 45.6958 96.8961 45.6958H96.6401L96.1921 46.7838L95.8081 47.8078L95.4881 46.7838L95.1041 45.7598L94.7841 45.6958C94.5921 45.6958 94.4641 45.6958 94.4641 45.7598Z" fill="#8DC63F"/>
<path fill-rule="evenodd" clip-rule="evenodd" d="M99.136 45.824C99.584 46.016 99.712 46.4 99.712 47.552V48.576H99.456C99.328 48.576 99.2426 48.512 99.2 48.384C99.2 48.32 99.136 48.192 99.136 48.192C99.136 48.192 98.944 48.256 98.752 48.384C98.368 48.576 98.112 48.576 97.728 48.448C97.472 48.256 97.408 48.128 97.408 47.744C97.408 47.296 97.856 47.04 98.688 46.912C99.136 46.848 99.2 46.72 98.944 46.4C98.816 46.208 98.56 46.208 97.92 46.4C97.728 46.4 97.664 46.4 97.6 46.272C97.536 46.08 97.664 45.952 98.048 45.824C98.496 45.696 98.752 45.696 99.136 45.824ZM98.816 47.296C98.304 47.296 98.048 47.488 98.048 47.808C98.048 48.064 98.112 48.064 98.368 48.064C98.752 48.128 99.072 47.872 99.072 47.552C99.072 47.36 99.072 47.296 98.816 47.296Z" fill="#8DC63F"/>
<path fill-rule="evenodd" clip-rule="evenodd" d="M105.984 45.9518C106.688 46.3998 106.752 47.7438 106.048 48.2558C105.472 48.7038 104.576 48.5758 104.128 48.0638C103.488 47.3598 103.808 46.0798 104.704 45.7598C105.024 45.6958 105.664 45.7598 105.984 45.9518ZM105.152 46.2078C104.704 46.2078 104.448 46.5278 104.448 47.1038C104.448 47.7438 104.704 47.9998 105.152 47.9998C105.664 47.9998 105.856 47.8078 105.856 47.1038C105.856 46.7198 105.792 46.5918 105.664 46.3998C105.579 46.2718 105.408 46.2078 105.152 46.2078Z" fill="#8DC63F"/>
<path d="M107.072 47.1038V48.5758H107.392H107.712V47.5518C107.712 46.5278 107.712 46.5278 107.904 46.3358C108.224 46.1438 108.608 46.2078 108.736 46.3998C108.8 46.4638 108.864 46.9758 108.864 47.5518V48.5758H109.184H109.504V47.4878C109.504 46.7198 109.44 46.3358 109.312 46.1438C109.12 45.6958 108.224 45.5678 107.84 45.9518C107.712 46.0798 107.648 46.0798 107.648 45.8878C107.584 45.7598 107.52 45.6958 107.328 45.6958H107.072V47.1038Z" fill="#8DC63F"/>
<path fill-rule="evenodd" clip-rule="evenodd" d="M115.776 45.9518C116.544 46.3998 116.544 47.7438 115.84 48.2558C115.328 48.7038 114.432 48.5758 113.984 48.0638C113.344 47.3598 113.664 46.0798 114.56 45.7598C114.88 45.6958 115.52 45.7598 115.776 45.9518ZM115.008 46.2078C114.56 46.2078 114.304 46.5278 114.304 47.1038C114.304 47.7438 114.56 47.9998 115.008 47.9998C115.52 47.9998 115.712 47.8078 115.712 47.1038C115.712 46.7198 115.648 46.5918 115.52 46.3998C115.435 46.2718 115.264 46.2078 115.008 46.2078Z" fill="#8DC63F"/>
<path d="M116.992 46.7838C116.992 47.9998 117.12 48.3198 117.568 48.4478C117.952 48.5758 118.08 48.5758 118.464 48.3838C118.656 48.2558 118.848 48.1918 118.848 48.1918C118.848 48.1918 118.848 48.2558 118.912 48.3838C118.912 48.5118 118.997 48.5758 119.168 48.5758H119.424V47.1038V45.6958H119.104H118.784V46.7198C118.784 47.6798 118.784 47.7438 118.592 47.8718C118.336 48.0638 117.952 48.0638 117.76 47.8718C117.632 47.7438 117.632 47.5518 117.632 46.7198V45.6958H117.312H116.992V46.7838Z" fill="#8DC63F"/>
<path d="M120.128 47.1038V48.5758H120.448H120.768V47.6798C120.768 46.9118 120.768 46.7838 120.96 46.5278C121.088 46.3998 121.216 46.3358 121.408 46.3358C121.664 46.3358 121.728 46.2718 121.728 46.0158C121.771 45.8452 121.749 45.7385 121.664 45.6958C121.472 45.6318 121.088 45.7598 120.896 45.9518L120.768 46.1438L120.704 45.8878C120.64 45.7598 120.576 45.6958 120.384 45.6958H120.128V47.1038Z" fill="#8DC63F"/>
<path d="M122.176 47.1038V48.5758H122.496H122.816V47.5518C122.816 46.5278 122.816 46.5278 123.008 46.3358C123.328 46.1438 123.776 46.2078 123.904 46.3998C123.904 46.4638 123.968 46.9758 123.968 47.5518V48.5758H124.288H124.608V47.4878C124.608 46.7198 124.544 46.3358 124.48 46.1438C124.224 45.6958 123.392 45.5678 122.944 45.9518C122.816 46.0798 122.816 46.0798 122.752 45.8878C122.688 45.7598 122.624 45.6958 122.432 45.6958H122.176V47.1038Z" fill="#8DC63F"/>
<path fill-rule="evenodd" clip-rule="evenodd" d="M127.168 45.8881C127.424 46.0801 127.68 46.6561 127.616 46.9121V47.1681L126.656 47.2321H125.696L125.824 47.5521C126.016 48.0001 126.336 48.1281 127.232 47.8721C127.424 47.8081 127.488 47.8721 127.552 48.0001C127.616 48.1921 127.36 48.3201 126.912 48.4481C126.08 48.7041 125.312 48.2561 125.12 47.4881C124.928 46.7201 125.248 46.0801 125.888 45.8241C126.208 45.6961 126.848 45.6961 127.168 45.8881ZM125.76 46.6561C125.76 46.7201 125.888 46.7841 126.4 46.7841C127.104 46.7841 127.104 46.7841 126.976 46.5921C126.976 46.4641 126.848 46.3361 126.784 46.3361C126.528 46.0801 125.76 46.3361 125.76 46.6561Z" fill="#8DC63F"/>
<path d="M127.936 45.7602C127.936 45.7602 128.192 46.3362 128.448 47.0402L129.024 48.3202L128.768 48.8322C128.64 49.1522 128.512 49.4082 128.512 49.4082C128.512 49.5362 129.024 49.4722 129.152 49.3442C129.216 49.2162 130.688 45.8242 130.688 45.7602C130.688 45.6322 130.176 45.6962 130.048 45.8242C130.048 45.8882 129.856 46.2722 129.728 46.7202C129.536 47.1682 129.408 47.4882 129.344 47.4882C129.344 47.4882 129.152 47.1042 128.96 46.5922C128.576 45.7602 128.576 45.7602 128.256 45.6962C128.064 45.6962 127.936 45.6962 127.936 45.7602Z" fill="#8DC63F"/>
<defs>
<linearGradient id="paint0_linear_1_2790" x1="32.3199" y1="-3.20002" x2="-0.96005" y2="66.88" gradientUnits="userSpaceOnUse">
<stop stop-color="#8CC63F"/>
<stop offset="1" stop-color="#D6DF23"/>
</linearGradient>
</defs>
</svg>
